<?xml version="1.0" encoding="UTF-8"?>
<svg xmlns="http://www.w3.org/2000/svg" xmlns:xlink="http://www.w3.org/1999/xlink" width="98px" height="99px">
  <defs>
    <linearGradient id="PSgrad_0" x1="0%" x2="0%" y1="0%" y2="100%">
      <stop offset="0%" stop-color="rgb(179,149,88)" stop-opacity="1"></stop>
      <stop offset="50%" stop-color="rgb(251,247,200)" stop-opacity="1"></stop>
      <stop offset="100%" stop-color="rgb(178,148,87)" stop-opacity="1"></stop>
    </linearGradient>
  </defs>
  <path fill-rule="evenodd" fill="rgb(255, 255, 255)" d="M80.912,34.457 C79.332,34.457 77.809,34.223 76.356,33.817 L66.119,62.629 C65.811,63.499 65.182,64.195 64.353,64.591 C63.888,64.812 63.389,64.925 62.890,64.925 C62.498,64.925 62.106,64.856 61.728,64.719 L34.223,54.787 C32.392,62.311 25.664,67.917 17.642,67.918 C8.219,67.918 0.554,60.190 0.554,50.691 C0.554,43.676 4.741,37.637 10.722,34.953 L0.851,12.496 L27.171,0.735 L35.112,18.797 L37.309,12.612 C37.617,11.742 38.244,11.045 39.073,10.649 C39.904,10.254 40.835,10.209 41.698,10.520 L63.891,18.535 C63.857,18.102 63.825,17.671 63.825,17.230 C63.825,7.730 71.490,0.002 80.912,0.002 C90.335,0.002 98.001,7.730 98.001,17.230 C98.001,26.729 90.335,34.457 80.912,34.457 ZM85.027,31.032 C89.608,29.643 93.225,25.996 94.603,21.378 L91.473,21.378 C90.320,24.350 87.974,26.716 85.027,27.879 L85.027,31.032 ZM89.472,17.229 C89.472,12.471 85.631,8.599 80.911,8.599 C76.192,8.599 72.350,12.471 72.350,17.229 C72.350,21.989 76.190,25.861 80.911,25.861 C85.632,25.861 89.472,21.989 89.472,17.229 ZM79.582,31.580 C80.020,31.621 80.463,31.648 80.911,31.648 C81.359,31.648 81.802,31.621 82.241,31.580 L82.241,28.584 C81.804,28.636 81.362,28.670 80.911,28.670 C80.461,28.670 80.020,28.636 79.582,28.584 L79.582,31.580 ZM76.795,31.034 L76.795,27.880 C73.848,26.717 71.501,24.352 70.349,21.380 L70.349,21.381 L67.219,21.381 C68.599,25.998 72.215,29.643 76.795,31.034 ZM31.946,50.690 C31.946,50.237 31.919,49.791 31.878,49.349 L28.904,49.349 C28.956,49.791 28.989,50.236 28.989,50.690 C28.989,51.144 28.956,51.589 28.904,52.030 L31.878,52.030 C31.919,51.589 31.946,51.141 31.946,50.690 ZM17.644,42.059 C12.923,42.059 9.083,45.930 9.083,50.690 C9.083,55.449 12.923,59.321 17.644,59.321 C22.364,59.321 26.204,55.448 26.204,50.690 C26.204,45.931 22.364,42.059 17.644,42.059 ZM18.974,39.336 L18.974,36.339 C18.536,36.298 18.093,36.271 17.644,36.271 C17.195,36.271 16.751,36.298 16.314,36.339 L16.314,39.336 C16.750,39.284 17.194,39.250 17.644,39.250 C18.094,39.250 18.537,39.284 18.974,39.336 ZM21.759,40.041 C24.706,41.203 27.052,43.569 28.204,46.541 L31.335,46.541 C29.955,41.922 26.339,38.277 21.759,36.886 L21.759,40.041 ZM21.759,64.493 C26.340,63.102 29.955,59.457 31.335,54.839 L28.204,54.839 C27.052,57.810 24.706,60.176 21.759,61.338 L21.759,64.493 ZM16.314,65.040 C16.751,65.081 17.195,65.109 17.644,65.109 C18.093,65.109 18.536,65.081 18.974,65.040 L18.974,62.045 C18.537,62.096 18.094,62.130 17.644,62.130 C17.194,62.130 16.750,62.096 16.314,62.045 L16.314,65.040 ZM13.526,64.494 L13.526,61.339 C10.580,60.177 8.234,57.812 7.081,54.840 L3.951,54.840 C5.332,59.457 8.947,63.102 13.526,64.494 ZM3.342,50.691 C3.342,51.143 3.368,51.589 3.410,52.031 L6.382,52.031 C6.330,51.590 6.297,51.145 6.297,50.691 C6.297,50.237 6.330,49.791 6.382,49.350 L3.410,49.350 C3.368,49.792 3.342,50.238 3.342,50.691 ZM3.951,46.541 L7.082,46.541 C8.234,43.571 10.580,41.204 13.527,40.042 L13.527,36.886 C8.947,38.277 5.331,41.923 3.951,46.541 ZM25.753,4.441 L4.527,13.926 L13.365,34.032 C14.734,33.675 16.163,33.464 17.643,33.464 C21.764,33.464 25.548,34.941 28.502,37.399 L33.749,22.630 L25.753,4.441 ZM40.756,13.164 C40.537,13.084 40.354,13.146 40.263,13.189 C40.172,13.231 40.008,13.337 39.930,13.558 L30.685,39.582 C33.204,42.584 34.732,46.458 34.732,50.690 C34.732,51.120 34.698,51.541 34.667,51.964 L62.667,62.074 C62.888,62.156 63.073,62.093 63.163,62.050 C63.253,62.008 63.418,61.902 63.496,61.681 L73.740,32.845 C69.206,30.720 65.756,26.658 64.430,21.713 L40.756,13.164 ZM66.610,17.230 C66.610,17.682 66.637,18.128 66.678,18.571 L69.650,18.571 C69.599,18.130 69.565,17.684 69.565,17.230 C69.565,16.776 69.599,16.330 69.650,15.890 L66.678,15.890 C66.637,16.332 66.610,16.777 66.610,17.230 ZM76.796,3.426 C72.214,4.817 68.599,8.462 67.219,13.081 L70.350,13.081 C71.502,10.109 73.848,7.744 76.796,6.581 L76.796,3.426 ZM82.241,2.878 C81.803,2.837 81.359,2.810 80.911,2.810 C80.463,2.810 80.021,2.837 79.582,2.878 L79.582,5.875 C80.019,5.823 80.461,5.790 80.911,5.790 C81.362,5.790 81.803,5.823 82.241,5.875 L82.241,2.878 ZM85.027,3.426 L85.027,6.581 C87.973,7.744 90.320,10.109 91.473,13.081 L94.604,13.081 C93.225,8.462 89.608,4.817 85.027,3.426 ZM92.174,15.890 C92.224,16.330 92.258,16.776 92.258,17.230 C92.258,17.684 92.225,18.130 92.174,18.571 L95.147,18.571 C95.188,18.129 95.215,17.683 95.215,17.230 C95.215,16.777 95.187,16.332 95.147,15.890 L92.174,15.890 ZM68.923,34.816 C68.308,35.067 67.664,35.194 67.020,35.194 C66.358,35.194 65.696,35.061 65.069,34.794 C62.512,33.711 61.304,30.730 62.375,28.149 C62.856,26.994 63.716,26.061 64.798,25.518 L66.038,28.032 C65.556,28.275 65.167,28.702 64.945,29.235 C64.466,30.388 65.005,31.720 66.147,32.204 C66.700,32.439 67.313,32.444 67.870,32.213 C68.425,31.985 68.860,31.553 69.093,30.994 L71.661,32.082 C71.141,33.332 70.168,34.303 68.923,34.816 ZM64.475,37.027 C65.741,37.483 66.755,38.410 67.330,39.637 C67.905,40.864 67.972,42.241 67.518,43.518 C66.802,45.531 64.897,46.884 62.778,46.884 C62.200,46.884 61.628,46.783 61.080,46.585 C59.813,46.128 58.800,45.202 58.225,43.975 C57.650,42.748 57.584,41.371 58.038,40.093 C58.753,38.081 60.658,36.728 62.777,36.728 C63.356,36.728 63.927,36.829 64.475,37.027 ZM60.661,41.040 C60.458,41.612 60.488,42.228 60.743,42.774 C61.001,43.322 61.453,43.736 62.021,43.940 C63.170,44.357 64.489,43.716 64.896,42.570 C65.099,42.000 65.070,41.384 64.812,40.837 C64.555,40.290 64.101,39.875 63.535,39.671 C63.289,39.582 63.034,39.537 62.777,39.537 C61.831,39.537 60.980,40.141 60.661,41.040 ZM60.357,48.625 C62.967,49.567 64.333,52.479 63.400,55.114 C62.683,57.130 60.777,58.482 58.658,58.482 C58.080,58.482 57.508,58.382 56.959,58.183 C55.693,57.726 54.680,56.798 54.106,55.572 C53.530,54.345 53.464,52.967 53.919,51.690 C54.633,49.679 56.538,48.326 58.658,48.326 C59.237,48.326 59.809,48.427 60.357,48.625 ZM56.541,52.638 C56.337,53.210 56.367,53.823 56.623,54.373 C56.881,54.920 57.333,55.335 57.899,55.539 C59.048,55.955 60.370,55.313 60.777,54.168 C61.194,52.992 60.583,51.690 59.416,51.269 C59.170,51.181 58.915,51.135 58.657,51.135 C57.711,51.135 56.860,51.739 56.541,52.638 ZM44.806,27.309 C44.228,27.309 43.657,27.208 43.109,27.010 C40.497,26.066 39.131,23.154 40.066,20.520 C40.782,18.505 42.686,17.153 44.807,17.153 C45.386,17.153 45.957,17.254 46.506,17.452 C49.119,18.395 50.483,21.308 49.547,23.943 C48.831,25.956 46.926,27.309 44.806,27.309 ZM45.566,20.095 C45.319,20.007 45.063,19.962 44.806,19.962 C43.859,19.962 43.008,20.566 42.689,21.466 C42.272,22.643 42.881,23.944 44.048,24.365 C45.198,24.781 46.516,24.139 46.923,22.994 C47.342,21.818 46.733,20.517 45.566,20.095 ZM42.384,29.049 C44.996,29.992 46.361,32.903 45.427,35.539 C44.711,37.553 42.807,38.906 40.687,38.906 C40.109,38.906 39.537,38.804 38.989,38.607 C37.723,38.149 36.710,37.225 36.135,35.998 C35.560,34.771 35.494,33.392 35.947,32.116 C36.663,30.103 38.567,28.750 40.687,28.750 C41.266,28.750 41.836,28.852 42.384,29.049 ZM38.570,33.062 C38.367,33.632 38.397,34.249 38.652,34.795 C38.910,35.344 39.362,35.757 39.928,35.962 C41.083,36.381 42.398,35.736 42.803,34.592 C43.220,33.414 42.611,32.113 41.444,31.692 C41.198,31.603 40.943,31.558 40.686,31.558 C39.740,31.558 38.890,32.163 38.570,33.062 ZM38.265,40.647 C40.878,41.589 42.243,44.500 41.307,47.138 C40.569,49.210 38.625,50.504 36.558,50.504 C35.997,50.504 35.426,50.409 34.869,50.208 L35.807,47.563 C36.977,47.983 38.267,47.367 38.685,46.190 C39.101,45.013 38.493,43.713 37.326,43.292 C36.520,43.000 35.634,43.189 35.014,43.784 L33.092,41.748 C34.480,40.418 36.462,39.997 38.265,40.647 ZM13.597,26.331 L17.623,15.423 L28.442,19.483 L24.415,30.391 L13.597,26.331 ZM19.262,19.035 L17.179,24.677 L22.776,26.777 L24.859,21.135 L19.262,19.035 ZM21.759,97.054 L18.973,97.054 L18.973,70.275 L21.759,70.275 L21.759,97.054 ZM53.679,64.001 L53.679,66.810 L32.923,66.810 L32.923,64.001 L53.679,64.001 ZM95.076,64.001 L95.076,66.810 L68.396,66.810 L68.396,64.001 L95.076,64.001 ZM96.469,98.458 L24.946,98.458 L24.946,68.871 L96.469,68.871 L96.469,98.458 ZM47.056,71.680 L27.732,71.680 L27.732,95.649 L47.056,95.649 L47.056,71.680 ZM71.208,71.680 L49.842,71.680 L49.842,95.649 L71.208,95.649 L71.208,71.680 ZM93.683,71.680 L73.994,71.680 L73.994,95.649 L93.683,95.649 L93.683,71.680 ZM76.311,80.087 L81.369,80.085 L82.933,75.234 L84.953,75.229 L86.528,80.085 L91.581,80.085 L92.219,82.009 L91.414,82.620 L88.121,85.032 L89.590,89.592 L88.760,90.758 L87.581,90.759 L87.204,90.475 L83.947,88.090 L80.304,90.757 L79.134,90.759 L78.298,89.592 L79.772,85.032 L75.673,82.028 L76.311,80.087 ZM82.493,85.683 L83.485,84.957 L83.946,84.955 L84.411,84.955 L85.399,85.683 L84.853,83.987 L86.300,82.894 L84.520,82.894 L83.946,81.172 L83.394,82.883 L81.592,82.895 L83.044,83.958 L82.493,85.683 ZM52.906,80.086 L57.964,80.084 L59.528,75.232 L61.548,75.228 L63.123,80.084 L68.176,80.084 L68.814,82.008 L68.012,82.620 L64.719,85.032 L66.189,89.592 L65.358,90.758 L64.179,90.759 L63.803,90.475 L60.545,88.090 L56.902,90.757 L55.732,90.759 L54.896,89.592 L56.370,85.032 L52.268,82.027 L52.906,80.086 ZM59.090,85.682 L60.082,84.956 L60.543,84.954 L61.006,84.954 L61.995,85.682 L61.449,83.987 L62.895,82.894 L61.116,82.894 L60.542,81.172 L59.990,82.883 L58.189,82.894 L59.641,83.957 L59.090,85.682 ZM34.562,80.084 L36.124,75.232 L38.228,75.228 L38.494,76.298 L39.719,80.084 L44.827,80.084 L45.398,82.145 L44.541,82.667 L41.311,85.034 L42.795,89.623 L41.920,90.757 L40.852,90.758 L40.414,90.489 L37.139,88.089 L33.431,90.756 L32.361,90.758 L31.523,89.677 L31.687,89.008 L32.966,85.031 L29.739,82.667 L28.883,82.149 L29.446,80.086 L34.562,80.084 ZM35.361,83.318 L36.195,83.821 L35.950,84.848 L35.681,85.684 L36.743,84.956 L37.524,84.954 L37.967,85.223 L38.593,85.683 L38.008,83.879 L39.490,82.894 L37.629,82.894 L37.139,81.165 L36.585,82.883 L34.784,82.894 L35.361,83.318 Z"></path>
  <path fill="url(#PSgrad_0)" d="M80.912,34.457 C79.332,34.457 77.809,34.223 76.356,33.817 L66.119,62.629 C65.811,63.499 65.182,64.195 64.353,64.591 C63.888,64.812 63.389,64.925 62.890,64.925 C62.498,64.925 62.106,64.856 61.728,64.719 L34.223,54.787 C32.392,62.311 25.664,67.917 17.642,67.918 C8.219,67.918 0.554,60.190 0.554,50.691 C0.554,43.676 4.741,37.637 10.722,34.953 L0.851,12.496 L27.171,0.735 L35.112,18.797 L37.309,12.612 C37.617,11.742 38.244,11.045 39.073,10.649 C39.904,10.254 40.835,10.209 41.698,10.520 L63.891,18.535 C63.857,18.102 63.825,17.671 63.825,17.230 C63.825,7.730 71.490,0.002 80.912,0.002 C90.335,0.002 98.001,7.730 98.001,17.230 C98.001,26.729 90.335,34.457 80.912,34.457 ZM85.027,31.032 C89.608,29.643 93.225,25.996 94.603,21.378 L91.473,21.378 C90.320,24.350 87.974,26.716 85.027,27.879 L85.027,31.032 ZM89.472,17.229 C89.472,12.471 85.631,8.599 80.911,8.599 C76.192,8.599 72.350,12.471 72.350,17.229 C72.350,21.989 76.190,25.861 80.911,25.861 C85.632,25.861 89.472,21.989 89.472,17.229 ZM79.582,31.580 C80.020,31.621 80.463,31.648 80.911,31.648 C81.359,31.648 81.802,31.621 82.241,31.580 L82.241,28.584 C81.804,28.636 81.362,28.670 80.911,28.670 C80.461,28.670 80.020,28.636 79.582,28.584 L79.582,31.580 ZM76.795,31.034 L76.795,27.880 C73.848,26.717 71.501,24.352 70.349,21.380 L70.349,21.381 L67.219,21.381 C68.599,25.998 72.215,29.643 76.795,31.034 ZM31.946,50.690 C31.946,50.237 31.919,49.791 31.878,49.349 L28.904,49.349 C28.956,49.791 28.989,50.236 28.989,50.690 C28.989,51.144 28.956,51.589 28.904,52.030 L31.878,52.030 C31.919,51.589 31.946,51.141 31.946,50.690 ZM17.644,42.059 C12.923,42.059 9.083,45.930 9.083,50.690 C9.083,55.449 12.923,59.321 17.644,59.321 C22.364,59.321 26.204,55.448 26.204,50.690 C26.204,45.931 22.364,42.059 17.644,42.059 ZM18.974,39.336 L18.974,36.339 C18.536,36.298 18.093,36.271 17.644,36.271 C17.195,36.271 16.751,36.298 16.314,36.339 L16.314,39.336 C16.750,39.284 17.194,39.250 17.644,39.250 C18.094,39.250 18.537,39.284 18.974,39.336 ZM21.759,40.041 C24.706,41.203 27.052,43.569 28.204,46.541 L31.335,46.541 C29.955,41.922 26.339,38.277 21.759,36.886 L21.759,40.041 ZM21.759,64.493 C26.340,63.102 29.955,59.457 31.335,54.839 L28.204,54.839 C27.052,57.810 24.706,60.176 21.759,61.338 L21.759,64.493 ZM16.314,65.040 C16.751,65.081 17.195,65.109 17.644,65.109 C18.093,65.109 18.536,65.081 18.974,65.040 L18.974,62.045 C18.537,62.096 18.094,62.130 17.644,62.130 C17.194,62.130 16.750,62.096 16.314,62.045 L16.314,65.040 ZM13.526,64.494 L13.526,61.339 C10.580,60.177 8.234,57.812 7.081,54.840 L3.951,54.840 C5.332,59.457 8.947,63.102 13.526,64.494 ZM3.342,50.691 C3.342,51.143 3.368,51.589 3.410,52.031 L6.382,52.031 C6.330,51.590 6.297,51.145 6.297,50.691 C6.297,50.237 6.330,49.791 6.382,49.350 L3.410,49.350 C3.368,49.792 3.342,50.238 3.342,50.691 ZM3.951,46.541 L7.082,46.541 C8.234,43.571 10.580,41.204 13.527,40.042 L13.527,36.886 C8.947,38.277 5.331,41.923 3.951,46.541 ZM25.753,4.441 L4.527,13.926 L13.365,34.032 C14.734,33.675 16.163,33.464 17.643,33.464 C21.764,33.464 25.548,34.941 28.502,37.399 L33.749,22.630 L25.753,4.441 ZM40.756,13.164 C40.537,13.084 40.354,13.146 40.263,13.189 C40.172,13.231 40.008,13.337 39.930,13.558 L30.685,39.582 C33.204,42.584 34.732,46.458 34.732,50.690 C34.732,51.120 34.698,51.541 34.667,51.964 L62.667,62.074 C62.888,62.156 63.073,62.093 63.163,62.050 C63.253,62.008 63.418,61.902 63.496,61.681 L73.740,32.845 C69.206,30.720 65.756,26.658 64.430,21.713 L40.756,13.164 ZM66.610,17.230 C66.610,17.682 66.637,18.128 66.678,18.571 L69.650,18.571 C69.599,18.130 69.565,17.684 69.565,17.230 C69.565,16.776 69.599,16.330 69.650,15.890 L66.678,15.890 C66.637,16.332 66.610,16.777 66.610,17.230 ZM76.796,3.426 C72.214,4.817 68.599,8.462 67.219,13.081 L70.350,13.081 C71.502,10.109 73.848,7.744 76.796,6.581 L76.796,3.426 ZM82.241,2.878 C81.803,2.837 81.359,2.810 80.911,2.810 C80.463,2.810 80.021,2.837 79.582,2.878 L79.582,5.875 C80.019,5.823 80.461,5.790 80.911,5.790 C81.362,5.790 81.803,5.823 82.241,5.875 L82.241,2.878 ZM85.027,3.426 L85.027,6.581 C87.973,7.744 90.320,10.109 91.473,13.081 L94.604,13.081 C93.225,8.462 89.608,4.817 85.027,3.426 ZM92.174,15.890 C92.224,16.330 92.258,16.776 92.258,17.230 C92.258,17.684 92.225,18.130 92.174,18.571 L95.147,18.571 C95.188,18.129 95.215,17.683 95.215,17.230 C95.215,16.777 95.187,16.332 95.147,15.890 L92.174,15.890 ZM68.923,34.816 C68.308,35.067 67.664,35.194 67.020,35.194 C66.358,35.194 65.696,35.061 65.069,34.794 C62.512,33.711 61.304,30.730 62.375,28.149 C62.856,26.994 63.716,26.061 64.798,25.518 L66.038,28.032 C65.556,28.275 65.167,28.702 64.945,29.235 C64.466,30.388 65.005,31.720 66.147,32.204 C66.700,32.439 67.313,32.444 67.870,32.213 C68.425,31.985 68.860,31.553 69.093,30.994 L71.661,32.082 C71.141,33.332 70.168,34.303 68.923,34.816 ZM64.475,37.027 C65.741,37.483 66.755,38.410 67.330,39.637 C67.905,40.864 67.972,42.241 67.518,43.518 C66.802,45.531 64.897,46.884 62.778,46.884 C62.200,46.884 61.628,46.783 61.080,46.585 C59.813,46.128 58.800,45.202 58.225,43.975 C57.650,42.748 57.584,41.371 58.038,40.093 C58.753,38.081 60.658,36.728 62.777,36.728 C63.356,36.728 63.927,36.829 64.475,37.027 ZM60.661,41.040 C60.458,41.612 60.488,42.228 60.743,42.774 C61.001,43.322 61.453,43.736 62.021,43.940 C63.170,44.357 64.489,43.716 64.896,42.570 C65.099,42.000 65.070,41.384 64.812,40.837 C64.555,40.290 64.101,39.875 63.535,39.671 C63.289,39.582 63.034,39.537 62.777,39.537 C61.831,39.537 60.980,40.141 60.661,41.040 ZM60.357,48.625 C62.967,49.567 64.333,52.479 63.400,55.114 C62.683,57.130 60.777,58.482 58.658,58.482 C58.080,58.482 57.508,58.382 56.959,58.183 C55.693,57.726 54.680,56.798 54.106,55.572 C53.530,54.345 53.464,52.967 53.919,51.690 C54.633,49.679 56.538,48.326 58.658,48.326 C59.237,48.326 59.809,48.427 60.357,48.625 ZM56.541,52.638 C56.337,53.210 56.367,53.823 56.623,54.373 C56.881,54.920 57.333,55.335 57.899,55.539 C59.048,55.955 60.370,55.313 60.777,54.168 C61.194,52.992 60.583,51.690 59.416,51.269 C59.170,51.181 58.915,51.135 58.657,51.135 C57.711,51.135 56.860,51.739 56.541,52.638 ZM44.806,27.309 C44.228,27.309 43.657,27.208 43.109,27.010 C40.497,26.066 39.131,23.154 40.066,20.520 C40.782,18.505 42.686,17.153 44.807,17.153 C45.386,17.153 45.957,17.254 46.506,17.452 C49.119,18.395 50.483,21.308 49.547,23.943 C48.831,25.956 46.926,27.309 44.806,27.309 ZM45.566,20.095 C45.319,20.007 45.063,19.962 44.806,19.962 C43.859,19.962 43.008,20.566 42.689,21.466 C42.272,22.643 42.881,23.944 44.048,24.365 C45.198,24.781 46.516,24.139 46.923,22.994 C47.342,21.818 46.733,20.517 45.566,20.095 ZM42.384,29.049 C44.996,29.992 46.361,32.903 45.427,35.539 C44.711,37.553 42.807,38.906 40.687,38.906 C40.109,38.906 39.537,38.804 38.989,38.607 C37.723,38.149 36.710,37.225 36.135,35.998 C35.560,34.771 35.494,33.392 35.947,32.116 C36.663,30.103 38.567,28.750 40.687,28.750 C41.266,28.750 41.836,28.852 42.384,29.049 ZM38.570,33.062 C38.367,33.632 38.397,34.249 38.652,34.795 C38.910,35.344 39.362,35.757 39.928,35.962 C41.083,36.381 42.398,35.736 42.803,34.592 C43.220,33.414 42.611,32.113 41.444,31.692 C41.198,31.603 40.943,31.558 40.686,31.558 C39.740,31.558 38.890,32.163 38.570,33.062 ZM38.265,40.647 C40.878,41.589 42.243,44.500 41.307,47.138 C40.569,49.210 38.625,50.504 36.558,50.504 C35.997,50.504 35.426,50.409 34.869,50.208 L35.807,47.563 C36.977,47.983 38.267,47.367 38.685,46.190 C39.101,45.013 38.493,43.713 37.326,43.292 C36.520,43.000 35.634,43.189 35.014,43.784 L33.092,41.748 C34.480,40.418 36.462,39.997 38.265,40.647 ZM13.597,26.331 L17.623,15.423 L28.442,19.483 L24.415,30.391 L13.597,26.331 ZM19.262,19.035 L17.179,24.677 L22.776,26.777 L24.859,21.135 L19.262,19.035 ZM21.759,97.054 L18.973,97.054 L18.973,70.275 L21.759,70.275 L21.759,97.054 ZM53.679,64.001 L53.679,66.810 L32.923,66.810 L32.923,64.001 L53.679,64.001 ZM95.076,64.001 L95.076,66.810 L68.396,66.810 L68.396,64.001 L95.076,64.001 ZM96.469,98.458 L24.946,98.458 L24.946,68.871 L96.469,68.871 L96.469,98.458 ZM47.056,71.680 L27.732,71.680 L27.732,95.649 L47.056,95.649 L47.056,71.680 ZM71.208,71.680 L49.842,71.680 L49.842,95.649 L71.208,95.649 L71.208,71.680 ZM93.683,71.680 L73.994,71.680 L73.994,95.649 L93.683,95.649 L93.683,71.680 ZM76.311,80.087 L81.369,80.085 L82.933,75.234 L84.953,75.229 L86.528,80.085 L91.581,80.085 L92.219,82.009 L91.414,82.620 L88.121,85.032 L89.590,89.592 L88.760,90.758 L87.581,90.759 L87.204,90.475 L83.947,88.090 L80.304,90.757 L79.134,90.759 L78.298,89.592 L79.772,85.032 L75.673,82.028 L76.311,80.087 ZM82.493,85.683 L83.485,84.957 L83.946,84.955 L84.411,84.955 L85.399,85.683 L84.853,83.987 L86.300,82.894 L84.520,82.894 L83.946,81.172 L83.394,82.883 L81.592,82.895 L83.044,83.958 L82.493,85.683 ZM52.906,80.086 L57.964,80.084 L59.528,75.232 L61.548,75.228 L63.123,80.084 L68.176,80.084 L68.814,82.008 L68.012,82.620 L64.719,85.032 L66.189,89.592 L65.358,90.758 L64.179,90.759 L63.803,90.475 L60.545,88.090 L56.902,90.757 L55.732,90.759 L54.896,89.592 L56.370,85.032 L52.268,82.027 L52.906,80.086 ZM59.090,85.682 L60.082,84.956 L60.543,84.954 L61.006,84.954 L61.995,85.682 L61.449,83.987 L62.895,82.894 L61.116,82.894 L60.542,81.172 L59.990,82.883 L58.189,82.894 L59.641,83.957 L59.090,85.682 ZM34.562,80.084 L36.124,75.232 L38.228,75.228 L38.494,76.298 L39.719,80.084 L44.827,80.084 L45.398,82.145 L44.541,82.667 L41.311,85.034 L42.795,89.623 L41.920,90.757 L40.852,90.758 L40.414,90.489 L37.139,88.089 L33.431,90.756 L32.361,90.758 L31.523,89.677 L31.687,89.008 L32.966,85.031 L29.739,82.667 L28.883,82.149 L29.446,80.086 L34.562,80.084 ZM35.361,83.318 L36.195,83.821 L35.950,84.848 L35.681,85.684 L36.743,84.956 L37.524,84.954 L37.967,85.223 L38.593,85.683 L38.008,83.879 L39.490,82.894 L37.629,82.894 L37.139,81.165 L36.585,82.883 L34.784,82.894 L35.361,83.318 Z"></path>
</svg>
