<?xml version="1.0" encoding="UTF-8"?>
<svg xmlns="http://www.w3.org/2000/svg" xmlns:xlink="http://www.w3.org/1999/xlink" width="132px" height="99px">
  <defs>
    <linearGradient id="PSgrad_0" x1="0%" x2="0%" y1="0%" y2="100%">
      <stop offset="0%" stop-color="rgb(179,149,88)" stop-opacity="1"></stop>
      <stop offset="50%" stop-color="rgb(251,247,200)" stop-opacity="1"></stop>
      <stop offset="100%" stop-color="rgb(178,148,87)" stop-opacity="1"></stop>
    </linearGradient>
  </defs>
  <path fill-rule="evenodd" fill="rgb(255, 255, 255)" d="M79.450,28.713 L101.113,28.713 C102.246,28.713 103.164,29.632 103.164,30.765 C103.164,31.899 102.246,32.817 101.113,32.817 L79.450,32.817 C78.317,32.817 77.399,31.899 77.399,30.765 C77.399,29.632 78.317,28.713 79.450,28.713 ZM118.837,32.817 L108.991,32.817 C107.857,32.817 106.939,31.899 106.939,30.765 C106.939,29.632 107.857,28.713 108.991,28.713 L118.837,28.713 C119.970,28.713 120.889,29.632 120.889,30.765 C120.889,31.899 119.970,32.817 118.837,32.817 ZM79.450,39.656 L118.837,39.656 C119.970,39.656 120.889,40.574 120.889,41.708 C120.889,42.841 119.970,43.759 118.837,43.759 L79.450,43.759 C78.317,43.759 77.399,42.841 77.399,41.708 C77.399,40.574 78.317,39.656 79.450,39.656 ZM77.399,52.650 C77.399,51.517 78.317,50.599 79.450,50.599 L93.236,50.599 C94.369,50.599 95.287,51.517 95.287,52.650 C95.287,53.784 94.369,54.702 93.236,54.702 L79.450,54.702 C78.317,54.702 77.399,53.784 77.399,52.650 ZM99.062,52.650 C99.062,51.517 99.980,50.599 101.113,50.599 L118.837,50.599 C119.970,50.599 120.889,51.517 120.889,52.650 C120.889,53.784 119.970,54.702 118.837,54.702 L101.113,54.702 C99.980,54.702 99.062,53.784 99.062,52.650 ZM108.990,70.022 L89.297,70.022 C88.164,70.022 87.245,69.103 87.245,67.970 C87.245,66.837 88.164,65.918 89.297,65.918 L108.990,65.918 C110.124,65.918 111.042,66.837 111.042,67.970 C111.042,69.104 110.123,70.022 108.990,70.022 ZM49.774,89.308 L42.252,83.666 L34.730,89.308 C33.402,90.304 31.447,89.323 31.447,87.667 L31.447,66.210 L28.029,66.210 C27.296,66.210 26.619,65.819 26.252,65.184 L22.716,59.058 L16.591,55.521 C15.957,55.155 15.565,54.478 15.565,53.745 L15.565,46.671 L12.029,40.545 C11.662,39.910 11.662,39.128 12.029,38.493 L15.565,32.367 L15.565,25.294 C15.565,24.561 15.955,23.884 16.590,23.517 L22.715,19.980 L26.252,13.854 C26.618,13.220 27.295,12.828 28.028,12.828 L35.101,12.828 L41.226,9.291 C41.860,8.925 42.642,8.925 43.277,9.291 L49.402,12.828 L56.474,12.828 C57.207,12.828 57.884,13.219 58.251,13.854 L61.787,19.980 L67.912,23.517 C68.547,23.883 68.938,24.560 68.938,25.294 L68.938,32.367 L72.474,38.493 C72.841,39.128 72.841,39.910 72.475,40.545 L68.938,46.671 L68.938,53.744 C68.938,54.477 68.547,55.154 67.913,55.521 L61.788,59.058 L58.251,65.184 C57.885,65.819 57.208,66.210 56.475,66.210 L53.056,66.210 L53.056,87.667 C53.056,89.321 51.102,90.305 49.774,89.308 ZM35.550,83.563 L41.021,79.460 C41.750,78.913 42.753,78.913 43.482,79.460 L48.953,83.563 L48.953,83.563 L48.953,66.470 L43.277,69.747 C42.648,70.110 41.854,70.110 41.226,69.747 L35.550,66.470 L35.550,83.563 ZM55.290,62.107 L58.509,56.531 C58.689,56.219 58.948,55.960 59.260,55.780 L64.835,52.560 L64.835,46.121 C64.835,45.761 64.930,45.407 65.110,45.095 L68.329,39.519 L65.110,33.943 C64.930,33.632 64.835,33.278 64.835,32.918 L64.835,26.479 L59.260,23.259 C58.949,23.079 58.689,22.820 58.509,22.508 L55.290,16.932 L48.852,16.932 C48.493,16.932 48.139,16.837 47.827,16.657 L42.252,13.437 L36.677,16.657 C36.365,16.837 36.011,16.932 35.651,16.932 L29.213,16.932 L25.994,22.508 C25.814,22.820 25.555,23.079 25.243,23.259 L19.668,26.478 L19.668,32.917 C19.668,33.277 19.573,33.631 19.393,33.943 L16.174,39.519 L19.393,45.095 C19.573,45.407 19.668,45.761 19.668,46.121 L19.668,52.560 L25.243,55.779 C25.555,55.959 25.814,56.218 25.994,56.530 L29.213,62.106 L35.651,62.106 C36.011,62.106 36.365,62.201 36.676,62.381 L42.252,65.601 L47.826,62.382 C48.138,62.202 48.492,62.107 48.852,62.107 L55.290,62.107 ZM21.796,39.560 C21.796,28.242 31.032,19.003 42.349,19.003 C53.666,19.003 62.903,28.240 62.903,39.560 C62.903,50.878 53.667,60.117 42.349,60.117 C31.033,60.117 21.796,50.880 21.796,39.560 ZM41.145,57.667 L41.145,52.754 C39.605,52.615 38.141,52.211 36.797,51.588 L34.342,55.841 C36.418,56.867 38.717,57.507 41.145,57.667 ZM32.257,54.634 L34.713,50.380 C33.481,49.508 32.403,48.430 31.531,47.198 L27.278,49.654 C28.598,51.619 30.292,53.314 32.257,54.634 ZM26.071,47.569 L30.324,45.113 C29.701,43.770 29.297,42.305 29.158,40.764 L24.246,40.764 C24.406,43.193 25.045,45.493 26.071,47.569 ZM24.246,38.355 L29.158,38.355 C29.297,36.815 29.701,35.350 30.324,34.007 L26.071,31.551 C25.045,33.627 24.406,35.927 24.246,38.355 ZM27.278,29.466 L31.531,31.922 C32.403,30.690 33.481,29.612 34.713,28.740 L32.257,24.486 C30.292,25.806 28.598,27.500 27.278,29.466 ZM41.145,21.453 C38.717,21.613 36.418,22.253 34.342,23.278 L36.797,27.532 C38.141,26.909 39.605,26.505 41.145,26.366 L41.145,21.453 ZM31.511,39.560 C31.511,45.537 36.374,50.401 42.349,50.401 C48.370,50.401 53.268,45.538 53.268,39.560 C53.268,33.583 48.370,28.720 42.349,28.720 C36.430,28.720 31.511,33.536 31.511,39.560 ZM43.554,21.453 L43.554,26.365 C45.097,26.503 46.587,26.906 47.971,27.552 L50.420,23.309 C48.327,22.266 46.006,21.615 43.554,21.453 ZM52.500,24.524 L50.052,28.764 C51.285,29.640 52.363,30.718 53.232,31.932 L57.443,29.500 C56.133,27.539 54.452,25.847 52.500,24.524 ZM58.646,31.587 L54.448,34.011 C55.085,35.373 55.483,36.838 55.622,38.355 L60.453,38.355 C60.294,35.941 59.661,33.654 58.646,31.587 ZM60.453,40.764 L55.622,40.764 C55.483,42.282 55.085,43.747 54.448,45.109 L58.646,47.533 C59.661,45.466 60.294,43.179 60.453,40.764 ZM57.443,49.620 L53.232,47.188 C52.363,48.403 51.284,49.481 50.052,50.356 L52.500,54.596 C54.452,53.273 56.133,51.581 57.443,49.620 ZM43.554,57.667 C46.007,57.505 48.327,56.854 50.420,55.811 L47.971,51.568 C46.587,52.214 45.097,52.617 43.554,52.755 L43.554,57.667 ZM42.426,38.355 C44.419,38.355 46.039,39.977 46.039,41.969 C46.039,43.482 45.084,44.847 43.663,45.365 C43.627,45.378 43.590,45.390 43.554,45.402 L43.554,46.787 C43.554,47.452 43.015,47.991 42.349,47.991 C41.684,47.991 41.145,47.452 41.145,46.787 L41.145,45.360 C40.379,45.084 39.649,44.562 39.019,43.812 C38.591,43.303 38.657,42.543 39.166,42.115 C39.676,41.687 40.435,41.753 40.863,42.263 C41.500,43.021 42.220,43.327 42.839,43.101 C43.312,42.929 43.631,42.474 43.631,41.969 C43.631,41.305 43.090,40.764 42.426,40.764 C40.434,40.764 38.814,39.143 38.814,37.151 C38.814,35.696 39.679,34.390 41.018,33.823 C41.060,33.805 41.103,33.788 41.145,33.772 L41.145,32.333 C41.145,31.668 41.684,31.129 42.349,31.129 C43.015,31.129 43.554,31.668 43.554,32.333 L43.554,33.711 C44.207,33.915 44.839,34.297 45.405,34.846 C45.882,35.308 45.894,36.071 45.432,36.549 C44.969,37.026 44.206,37.038 43.729,36.575 C43.142,36.007 42.497,35.813 41.957,36.041 C41.511,36.230 41.222,36.666 41.222,37.151 C41.222,37.815 41.762,38.355 42.426,38.355 ZM131.229,78.996 L112.356,97.872 C111.976,98.252 111.443,98.473 110.905,98.473 L2.864,98.473 C1.731,98.473 0.813,97.554 0.813,96.421 L0.813,81.101 C0.813,79.968 1.732,79.050 2.864,79.050 C3.997,79.050 4.916,79.968 4.916,81.101 L4.916,94.369 L108.854,94.369 L108.854,77.545 C108.854,76.411 109.772,75.493 110.905,75.493 L127.727,75.493 L127.727,4.366 L4.916,4.366 L4.916,67.970 C4.916,69.103 3.997,70.022 2.865,70.022 C1.732,70.022 0.813,69.103 0.813,67.970 L0.813,2.314 C0.813,1.181 1.732,0.262 2.865,0.262 L129.778,0.262 C130.911,0.262 131.829,1.181 131.829,2.314 L131.829,77.545 C131.829,78.083 131.609,78.616 131.229,78.996 ZM112.956,79.597 L112.956,91.468 L124.826,79.597 L112.956,79.597 Z"></path>
  <path fill="url(#PSgrad_0)" d="M79.450,28.713 L101.113,28.713 C102.246,28.713 103.164,29.632 103.164,30.765 C103.164,31.899 102.246,32.817 101.113,32.817 L79.450,32.817 C78.317,32.817 77.399,31.899 77.399,30.765 C77.399,29.632 78.317,28.713 79.450,28.713 ZM118.837,32.817 L108.991,32.817 C107.857,32.817 106.939,31.899 106.939,30.765 C106.939,29.632 107.857,28.713 108.991,28.713 L118.837,28.713 C119.970,28.713 120.889,29.632 120.889,30.765 C120.889,31.899 119.970,32.817 118.837,32.817 ZM79.450,39.656 L118.837,39.656 C119.970,39.656 120.889,40.574 120.889,41.708 C120.889,42.841 119.970,43.759 118.837,43.759 L79.450,43.759 C78.317,43.759 77.399,42.841 77.399,41.708 C77.399,40.574 78.317,39.656 79.450,39.656 ZM77.399,52.650 C77.399,51.517 78.317,50.599 79.450,50.599 L93.236,50.599 C94.369,50.599 95.287,51.517 95.287,52.650 C95.287,53.784 94.369,54.702 93.236,54.702 L79.450,54.702 C78.317,54.702 77.399,53.784 77.399,52.650 ZM99.062,52.650 C99.062,51.517 99.980,50.599 101.113,50.599 L118.837,50.599 C119.970,50.599 120.889,51.517 120.889,52.650 C120.889,53.784 119.970,54.702 118.837,54.702 L101.113,54.702 C99.980,54.702 99.062,53.784 99.062,52.650 ZM108.990,70.022 L89.297,70.022 C88.164,70.022 87.245,69.103 87.245,67.970 C87.245,66.837 88.164,65.918 89.297,65.918 L108.990,65.918 C110.124,65.918 111.042,66.837 111.042,67.970 C111.042,69.104 110.123,70.022 108.990,70.022 ZM49.774,89.308 L42.252,83.666 L34.730,89.308 C33.402,90.304 31.447,89.323 31.447,87.667 L31.447,66.210 L28.029,66.210 C27.296,66.210 26.619,65.819 26.252,65.184 L22.716,59.058 L16.591,55.521 C15.957,55.155 15.565,54.478 15.565,53.745 L15.565,46.671 L12.029,40.545 C11.662,39.910 11.662,39.128 12.029,38.493 L15.565,32.367 L15.565,25.294 C15.565,24.561 15.955,23.884 16.590,23.517 L22.715,19.980 L26.252,13.854 C26.618,13.220 27.295,12.828 28.028,12.828 L35.101,12.828 L41.226,9.291 C41.860,8.925 42.642,8.925 43.277,9.291 L49.402,12.828 L56.474,12.828 C57.207,12.828 57.884,13.219 58.251,13.854 L61.787,19.980 L67.912,23.517 C68.547,23.883 68.938,24.560 68.938,25.294 L68.938,32.367 L72.474,38.493 C72.841,39.128 72.841,39.910 72.475,40.545 L68.938,46.671 L68.938,53.744 C68.938,54.477 68.547,55.154 67.913,55.521 L61.788,59.058 L58.251,65.184 C57.885,65.819 57.208,66.210 56.475,66.210 L53.056,66.210 L53.056,87.667 C53.056,89.321 51.102,90.305 49.774,89.308 ZM35.550,83.563 L41.021,79.460 C41.750,78.913 42.753,78.913 43.482,79.460 L48.953,83.563 L48.953,83.563 L48.953,66.470 L43.277,69.747 C42.648,70.110 41.854,70.110 41.226,69.747 L35.550,66.470 L35.550,83.563 ZM55.290,62.107 L58.509,56.531 C58.689,56.219 58.948,55.960 59.260,55.780 L64.835,52.560 L64.835,46.121 C64.835,45.761 64.930,45.407 65.110,45.095 L68.329,39.519 L65.110,33.943 C64.930,33.632 64.835,33.278 64.835,32.918 L64.835,26.479 L59.260,23.259 C58.949,23.079 58.689,22.820 58.509,22.508 L55.290,16.932 L48.852,16.932 C48.493,16.932 48.139,16.837 47.827,16.657 L42.252,13.437 L36.677,16.657 C36.365,16.837 36.011,16.932 35.651,16.932 L29.213,16.932 L25.994,22.508 C25.814,22.820 25.555,23.079 25.243,23.259 L19.668,26.478 L19.668,32.917 C19.668,33.277 19.573,33.631 19.393,33.943 L16.174,39.519 L19.393,45.095 C19.573,45.407 19.668,45.761 19.668,46.121 L19.668,52.560 L25.243,55.779 C25.555,55.959 25.814,56.218 25.994,56.530 L29.213,62.106 L35.651,62.106 C36.011,62.106 36.365,62.201 36.676,62.381 L42.252,65.601 L47.826,62.382 C48.138,62.202 48.492,62.107 48.852,62.107 L55.290,62.107 ZM21.796,39.560 C21.796,28.242 31.032,19.003 42.349,19.003 C53.666,19.003 62.903,28.240 62.903,39.560 C62.903,50.878 53.667,60.117 42.349,60.117 C31.033,60.117 21.796,50.880 21.796,39.560 ZM41.145,57.667 L41.145,52.754 C39.605,52.615 38.141,52.211 36.797,51.588 L34.342,55.841 C36.418,56.867 38.717,57.507 41.145,57.667 ZM32.257,54.634 L34.713,50.380 C33.481,49.508 32.403,48.430 31.531,47.198 L27.278,49.654 C28.598,51.619 30.292,53.314 32.257,54.634 ZM26.071,47.569 L30.324,45.113 C29.701,43.770 29.297,42.305 29.158,40.764 L24.246,40.764 C24.406,43.193 25.045,45.493 26.071,47.569 ZM24.246,38.355 L29.158,38.355 C29.297,36.815 29.701,35.350 30.324,34.007 L26.071,31.551 C25.045,33.627 24.406,35.927 24.246,38.355 ZM27.278,29.466 L31.531,31.922 C32.403,30.690 33.481,29.612 34.713,28.740 L32.257,24.486 C30.292,25.806 28.598,27.500 27.278,29.466 ZM41.145,21.453 C38.717,21.613 36.418,22.253 34.342,23.278 L36.797,27.532 C38.141,26.909 39.605,26.505 41.145,26.366 L41.145,21.453 ZM31.511,39.560 C31.511,45.537 36.374,50.401 42.349,50.401 C48.370,50.401 53.268,45.538 53.268,39.560 C53.268,33.583 48.370,28.720 42.349,28.720 C36.430,28.720 31.511,33.536 31.511,39.560 ZM43.554,21.453 L43.554,26.365 C45.097,26.503 46.587,26.906 47.971,27.552 L50.420,23.309 C48.327,22.266 46.006,21.615 43.554,21.453 ZM52.500,24.524 L50.052,28.764 C51.285,29.640 52.363,30.718 53.232,31.932 L57.443,29.500 C56.133,27.539 54.452,25.847 52.500,24.524 ZM58.646,31.587 L54.448,34.011 C55.085,35.373 55.483,36.838 55.622,38.355 L60.453,38.355 C60.294,35.941 59.661,33.654 58.646,31.587 ZM60.453,40.764 L55.622,40.764 C55.483,42.282 55.085,43.747 54.448,45.109 L58.646,47.533 C59.661,45.466 60.294,43.179 60.453,40.764 ZM57.443,49.620 L53.232,47.188 C52.363,48.403 51.284,49.481 50.052,50.356 L52.500,54.596 C54.452,53.273 56.133,51.581 57.443,49.620 ZM43.554,57.667 C46.007,57.505 48.327,56.854 50.420,55.811 L47.971,51.568 C46.587,52.214 45.097,52.617 43.554,52.755 L43.554,57.667 ZM42.426,38.355 C44.419,38.355 46.039,39.977 46.039,41.969 C46.039,43.482 45.084,44.847 43.663,45.365 C43.627,45.378 43.590,45.390 43.554,45.402 L43.554,46.787 C43.554,47.452 43.015,47.991 42.349,47.991 C41.684,47.991 41.145,47.452 41.145,46.787 L41.145,45.360 C40.379,45.084 39.649,44.562 39.019,43.812 C38.591,43.303 38.657,42.543 39.166,42.115 C39.676,41.687 40.435,41.753 40.863,42.263 C41.500,43.021 42.220,43.327 42.839,43.101 C43.312,42.929 43.631,42.474 43.631,41.969 C43.631,41.305 43.090,40.764 42.426,40.764 C40.434,40.764 38.814,39.143 38.814,37.151 C38.814,35.696 39.679,34.390 41.018,33.823 C41.060,33.805 41.103,33.788 41.145,33.772 L41.145,32.333 C41.145,31.668 41.684,31.129 42.349,31.129 C43.015,31.129 43.554,31.668 43.554,32.333 L43.554,33.711 C44.207,33.915 44.839,34.297 45.405,34.846 C45.882,35.308 45.894,36.071 45.432,36.549 C44.969,37.026 44.206,37.038 43.729,36.575 C43.142,36.007 42.497,35.813 41.957,36.041 C41.511,36.230 41.222,36.666 41.222,37.151 C41.222,37.815 41.762,38.355 42.426,38.355 ZM131.229,78.996 L112.356,97.872 C111.976,98.252 111.443,98.473 110.905,98.473 L2.864,98.473 C1.731,98.473 0.813,97.554 0.813,96.421 L0.813,81.101 C0.813,79.968 1.732,79.050 2.864,79.050 C3.997,79.050 4.916,79.968 4.916,81.101 L4.916,94.369 L108.854,94.369 L108.854,77.545 C108.854,76.411 109.772,75.493 110.905,75.493 L127.727,75.493 L127.727,4.366 L4.916,4.366 L4.916,67.970 C4.916,69.103 3.997,70.022 2.865,70.022 C1.732,70.022 0.813,69.103 0.813,67.970 L0.813,2.314 C0.813,1.181 1.732,0.262 2.865,0.262 L129.778,0.262 C130.911,0.262 131.829,1.181 131.829,2.314 L131.829,77.545 C131.829,78.083 131.609,78.616 131.229,78.996 ZM112.956,79.597 L112.956,91.468 L124.826,79.597 L112.956,79.597 Z"></path>
</svg>
