<?xml version="1.0" encoding="UTF-8"?>
<svg xmlns="http://www.w3.org/2000/svg" xmlns:xlink="http://www.w3.org/1999/xlink" width="99px" height="99px">
  <defs>
    <linearGradient id="PSgrad_0" x1="0%" x2="0%" y1="0%" y2="100%">
      <stop offset="0%" stop-color="rgb(179,149,88)" stop-opacity="1"></stop>
      <stop offset="50%" stop-color="rgb(251,247,200)" stop-opacity="1"></stop>
      <stop offset="100%" stop-color="rgb(178,148,87)" stop-opacity="1"></stop>
    </linearGradient>
  </defs>
  <path fill-rule="evenodd" fill="rgb(255, 255, 255)" d="M97.890,0.826 C97.529,0.465 97.040,0.262 96.530,0.262 L49.226,0.265 C48.164,0.265 47.303,1.126 47.303,2.188 L47.303,7.687 L29.076,12.572 C28.050,12.847 27.441,13.902 27.716,14.927 L37.163,50.187 L28.990,58.360 C27.950,56.841 26.204,55.842 24.228,55.842 L5.768,55.842 C2.587,55.842 -0.000,58.430 -0.000,61.611 L-0.000,92.958 C-0.000,96.139 2.587,98.728 5.768,98.728 L24.229,98.728 C26.931,98.728 29.204,96.859 29.827,94.347 L32.114,96.341 C33.879,97.880 36.140,98.728 38.482,98.728 L96.530,98.728 C97.592,98.728 98.453,97.867 98.453,96.805 L98.453,2.185 C98.453,1.675 98.250,1.186 97.890,0.826 ZM26.151,92.958 C26.151,94.018 25.288,94.881 24.228,94.881 L5.768,94.881 C4.708,94.881 3.845,94.019 3.845,92.958 L3.845,61.612 C3.845,60.551 4.708,59.689 5.768,59.689 L13.075,59.689 L13.075,81.842 C13.075,82.904 13.936,83.765 14.998,83.765 C16.060,83.765 16.921,82.904 16.921,81.842 L16.921,59.689 L24.228,59.689 C25.289,59.689 26.151,60.551 26.151,61.612 L26.151,92.958 L26.151,92.958 ZM31.928,15.790 L47.303,11.669 L47.303,18.796 L46.014,19.141 C45.521,19.273 45.102,19.595 44.847,20.037 C44.592,20.479 44.523,21.004 44.655,21.496 C45.394,24.254 43.751,27.099 40.994,27.838 C40.500,27.971 40.080,28.293 39.825,28.736 C39.570,29.179 39.501,29.704 39.635,30.197 L47.130,57.956 L43.271,57.956 L41.282,50.174 C41.219,49.926 41.108,49.698 40.960,49.499 L31.928,15.790 ZM47.303,27.615 L47.303,43.843 L43.796,30.855 C45.261,30.098 46.460,28.966 47.303,27.615 ZM74.929,94.881 L38.482,94.881 L38.482,94.881 C37.069,94.881 35.705,94.370 34.641,93.442 L29.997,89.391 L29.997,62.793 L38.392,54.397 L39.915,60.355 C40.133,61.206 40.899,61.801 41.778,61.801 L79.584,61.804 C81.069,61.804 82.276,63.012 82.276,64.496 C82.276,65.981 81.069,67.189 79.584,67.189 L60.212,67.189 C59.150,67.189 58.289,68.050 58.289,69.112 C58.289,70.174 59.150,71.035 60.212,71.035 L85.603,71.035 C87.087,71.035 88.295,72.243 88.295,73.727 C88.295,75.212 87.087,76.420 85.603,76.420 L60.212,76.420 C59.150,76.420 58.289,77.281 58.289,78.343 C58.289,79.405 59.150,80.266 60.212,80.266 L81.488,80.266 C82.973,80.266 84.181,81.474 84.181,82.958 C84.181,84.443 82.973,85.651 81.488,85.651 L60.212,85.651 C59.150,85.651 58.289,86.512 58.289,87.574 C58.289,88.636 59.150,89.497 60.212,89.497 L74.929,89.497 C76.414,89.497 77.621,90.705 77.621,92.190 C77.621,93.673 76.413,94.881 74.929,94.881 ZM94.607,94.881 L94.607,94.881 L80.885,94.881 C81.258,94.059 81.467,93.148 81.467,92.189 C81.467,91.229 81.258,90.318 80.885,89.496 L81.488,89.496 C85.093,89.496 88.026,86.563 88.026,82.958 C88.026,81.906 87.775,80.913 87.332,80.031 C90.101,79.271 92.141,76.733 92.141,73.727 C92.141,72.268 91.660,70.920 90.850,69.832 L90.850,45.458 C90.850,44.396 89.989,43.534 88.927,43.534 C87.865,43.534 87.004,44.396 87.004,45.458 L87.004,67.341 C86.552,67.242 86.084,67.189 85.603,67.189 L85.540,67.189 C85.912,66.367 86.122,65.456 86.122,64.496 C86.122,60.891 83.189,57.958 79.584,57.958 L76.493,57.958 C79.775,56.550 82.080,53.287 82.080,49.495 C82.080,44.420 77.952,40.291 72.878,40.291 C67.803,40.291 63.675,44.420 63.675,49.495 C63.675,53.287 65.980,56.550 69.262,57.958 L58.751,57.958 L58.751,21.391 C62.186,20.642 64.897,17.931 65.645,14.495 L80.110,14.495 C80.858,17.931 83.569,20.642 87.004,21.391 L87.004,27.370 C87.004,28.432 87.865,29.293 88.927,29.293 C89.989,29.293 90.850,28.432 90.850,27.370 L90.850,19.673 C90.850,18.612 89.989,17.750 88.927,17.750 C86.072,17.750 83.750,15.427 83.750,12.572 C83.750,11.510 82.889,10.649 81.827,10.649 L63.929,10.649 C62.867,10.649 62.006,11.510 62.006,12.572 C62.006,15.428 59.683,17.750 56.828,17.750 C55.766,17.750 54.905,18.612 54.905,19.673 L54.905,57.957 L51.149,57.957 L51.149,4.111 L94.607,4.109 L94.607,94.881 ZM72.878,54.852 C69.924,54.852 67.521,52.449 67.521,49.495 C67.521,46.541 69.924,44.138 72.878,44.138 C75.832,44.138 78.235,46.541 78.235,49.495 C78.235,52.449 75.832,54.852 72.878,54.852 Z"></path>
  <path fill="url(#PSgrad_0)" d="M97.890,0.826 C97.529,0.465 97.040,0.262 96.530,0.262 L49.226,0.265 C48.164,0.265 47.303,1.126 47.303,2.188 L47.303,7.687 L29.076,12.572 C28.050,12.847 27.441,13.902 27.716,14.927 L37.163,50.187 L28.990,58.360 C27.950,56.841 26.204,55.842 24.228,55.842 L5.768,55.842 C2.587,55.842 -0.000,58.430 -0.000,61.611 L-0.000,92.958 C-0.000,96.139 2.587,98.728 5.768,98.728 L24.229,98.728 C26.931,98.728 29.204,96.859 29.827,94.347 L32.114,96.341 C33.879,97.880 36.140,98.728 38.482,98.728 L96.530,98.728 C97.592,98.728 98.453,97.867 98.453,96.805 L98.453,2.185 C98.453,1.675 98.250,1.186 97.890,0.826 ZM26.151,92.958 C26.151,94.018 25.288,94.881 24.228,94.881 L5.768,94.881 C4.708,94.881 3.845,94.019 3.845,92.958 L3.845,61.612 C3.845,60.551 4.708,59.689 5.768,59.689 L13.075,59.689 L13.075,81.842 C13.075,82.904 13.936,83.765 14.998,83.765 C16.060,83.765 16.921,82.904 16.921,81.842 L16.921,59.689 L24.228,59.689 C25.289,59.689 26.151,60.551 26.151,61.612 L26.151,92.958 L26.151,92.958 ZM31.928,15.790 L47.303,11.669 L47.303,18.796 L46.014,19.141 C45.521,19.273 45.102,19.595 44.847,20.037 C44.592,20.479 44.523,21.004 44.655,21.496 C45.394,24.254 43.751,27.099 40.994,27.838 C40.500,27.971 40.080,28.293 39.825,28.736 C39.570,29.179 39.501,29.704 39.635,30.197 L47.130,57.956 L43.271,57.956 L41.282,50.174 C41.219,49.926 41.108,49.698 40.960,49.499 L31.928,15.790 ZM47.303,27.615 L47.303,43.843 L43.796,30.855 C45.261,30.098 46.460,28.966 47.303,27.615 ZM74.929,94.881 L38.482,94.881 L38.482,94.881 C37.069,94.881 35.705,94.370 34.641,93.442 L29.997,89.391 L29.997,62.793 L38.392,54.397 L39.915,60.355 C40.133,61.206 40.899,61.801 41.778,61.801 L79.584,61.804 C81.069,61.804 82.276,63.012 82.276,64.496 C82.276,65.981 81.069,67.189 79.584,67.189 L60.212,67.189 C59.150,67.189 58.289,68.050 58.289,69.112 C58.289,70.174 59.150,71.035 60.212,71.035 L85.603,71.035 C87.087,71.035 88.295,72.243 88.295,73.727 C88.295,75.212 87.087,76.420 85.603,76.420 L60.212,76.420 C59.150,76.420 58.289,77.281 58.289,78.343 C58.289,79.405 59.150,80.266 60.212,80.266 L81.488,80.266 C82.973,80.266 84.181,81.474 84.181,82.958 C84.181,84.443 82.973,85.651 81.488,85.651 L60.212,85.651 C59.150,85.651 58.289,86.512 58.289,87.574 C58.289,88.636 59.150,89.497 60.212,89.497 L74.929,89.497 C76.414,89.497 77.621,90.705 77.621,92.190 C77.621,93.673 76.413,94.881 74.929,94.881 ZM94.607,94.881 L94.607,94.881 L80.885,94.881 C81.258,94.059 81.467,93.148 81.467,92.189 C81.467,91.229 81.258,90.318 80.885,89.496 L81.488,89.496 C85.093,89.496 88.026,86.563 88.026,82.958 C88.026,81.906 87.775,80.913 87.332,80.031 C90.101,79.271 92.141,76.733 92.141,73.727 C92.141,72.268 91.660,70.920 90.850,69.832 L90.850,45.458 C90.850,44.396 89.989,43.534 88.927,43.534 C87.865,43.534 87.004,44.396 87.004,45.458 L87.004,67.341 C86.552,67.242 86.084,67.189 85.603,67.189 L85.540,67.189 C85.912,66.367 86.122,65.456 86.122,64.496 C86.122,60.891 83.189,57.958 79.584,57.958 L76.493,57.958 C79.775,56.550 82.080,53.287 82.080,49.495 C82.080,44.420 77.952,40.291 72.878,40.291 C67.803,40.291 63.675,44.420 63.675,49.495 C63.675,53.287 65.980,56.550 69.262,57.958 L58.751,57.958 L58.751,21.391 C62.186,20.642 64.897,17.931 65.645,14.495 L80.110,14.495 C80.858,17.931 83.569,20.642 87.004,21.391 L87.004,27.370 C87.004,28.432 87.865,29.293 88.927,29.293 C89.989,29.293 90.850,28.432 90.850,27.370 L90.850,19.673 C90.850,18.612 89.989,17.750 88.927,17.750 C86.072,17.750 83.750,15.427 83.750,12.572 C83.750,11.510 82.889,10.649 81.827,10.649 L63.929,10.649 C62.867,10.649 62.006,11.510 62.006,12.572 C62.006,15.428 59.683,17.750 56.828,17.750 C55.766,17.750 54.905,18.612 54.905,19.673 L54.905,57.957 L51.149,57.957 L51.149,4.111 L94.607,4.109 L94.607,94.881 ZM72.878,54.852 C69.924,54.852 67.521,52.449 67.521,49.495 C67.521,46.541 69.924,44.138 72.878,44.138 C75.832,44.138 78.235,46.541 78.235,49.495 C78.235,52.449 75.832,54.852 72.878,54.852 Z"></path>
</svg>
