<svg id="players_choice" viewBox="0 0 20 20" xmlns="http://www.w3.org/2000/svg">
    <path d="m9.51 18.04-2.58.63h-.11l-.05-.02a.18.18 0 0 1-.09-.13l-.39-1.6.4-.1 2.18-.54.4-.1.39 1.61a.2.2 0 0 1-.15.25ZM9.11 15.71l-2.58.64-.4.1c-.36-.03-.71-.11-1.02-.17l-.26-.05-.08-.02-.08-.02-.08-.02-.08-.02-.08-.02-.37-.11a.49.49 0 0 1-.11-.04l-.43-.17-.12-.05-.06-.03-.29-.15-.07-.04-.27-.17a.55.55 0 0 1-.08-.06l-.1-.07-.04-.03-.14-.11-.05-.05a4.72 4.72 0 0 1-.45-.44l-.05-.06-.21-.27-.04-.06-.16-.26c0-.02-.02-.03-.03-.05l-.11-.21a.08.08 0 0 0-.02-.04l-.08-.21v-.02l-.02-.06v-.02L.04 8.71a1.24 1.24 0 0 1 2.33-.77l.06.18.06.23.59 2.43a1 1 0 0 0-.38.16c-.36.21-.57.61-.55 1.05.02.5.34.94.85 1.18l1.78 1c.1.06.22.02.28-.08a.2.2 0 0 0-.08-.28l-1.79-1h-.01c-.38-.17-.6-.48-.62-.83a.75.75 0 0 1 .45-.73h.02c.32-.11.73-.02 1.2.26.51.32 1.51.84 2.43.73 1.05-.13 1.49-.14 1.85.93l.52 2.15.09.37Z"/>
    <path d="m2.85 7.87.71 2.87s.19-.03.56.2.96.52.96.52l-.74-2.91s-.33-1.11-1.5-.67ZM10.49 18.04l2.58.63h.11l.05-.02a.18.18 0 0 0 .09-.13l.39-1.6-.4-.1-2.18-.54-.4-.1-.39 1.61a.2.2 0 0 0 .15.25ZM10.89 15.71l2.58.64.4.1c.36-.03.71-.11 1.02-.17l.26-.05.08-.02.08-.02.08-.02.08-.02.08-.02.37-.11a.49.49 0 0 0 .11-.04l.43-.17.12-.05.06-.03.29-.15.07-.04.27-.17a.55.55 0 0 0 .08-.06l.1-.07.04-.03.14-.11.05-.05c.17-.15.32-.29.45-.44l.05-.06.21-.27.04-.06.16-.26c0-.02.02-.03.03-.05l.11-.21.02-.04.08-.21v-.02l.02-.06v-.02l1.13-4.63a1.24 1.24 0 0 0-2.33-.77l-.06.18-.06.23-.59 2.43a1 1 0 0 1 .38.16c.36.21.57.61.55 1.05-.02.5-.34.94-.85 1.18l-1.78 1c-.1.06-.22.02-.28-.08a.2.2 0 0 1 .08-.28l1.79-1h.01c.38-.17.6-.48.62-.83a.75.75 0 0 0-.45-.73h-.02c-.32-.11-.73-.02-1.2.26-.51.32-1.51.84-2.43.73-1.05-.13-1.49-.14-1.85.93l-.52 2.15-.09.37Z"/>
    <path d="m17.15 7.87-.71 2.87s-.19-.03-.56.2-.96.52-.96.52l.74-2.91s.33-1.11 1.5-.67ZM11.75 4.14l2.72.39c.27.04.37.36.18.55L12.68 7a.3.3 0 0 0-.09.29l.47 2.71a.32.32 0 0 1-.47.34l-2.44-1.28a.32.32 0 0 0-.3 0l-2.43 1.28a.33.33 0 0 1-.47-.34l.46-2.71A.35.35 0 0 0 7.32 7L5.35 5.08a.32.32 0 0 1 .18-.55l2.72-.4c.11-.02.2-.08.24-.18L9.7 1.48a.32.32 0 0 1 .58 0l1.22 2.46c.05.1.14.16.24.18Z"/>
  </svg>