<svg id="popular" viewBox="0 0 30 32" xmlns="http://www.w3.org/2000/svg">
    <path d="M23.933 18.733c-0.367-4.773-2.593-7.76-4.553-10.4-1.813-2.44-3.38-4.553-3.38-7.667-0.002-0.367-0.3-0.664-0.667-0.664-0.145 0-0.279 0.046-0.389 0.125l0.002-0.001c-2.99 2.211-5.203 5.321-6.25 8.927l-0.030 0.12c-0.426 1.888-0.671 4.055-0.671 6.28 0 0.169 0.001 0.337 0.004 0.505l-0-0.025c-2.72-0.58-3.333-4.667-3.333-4.667-0.047-0.326-0.325-0.575-0.66-0.575-0.107 0-0.208 0.025-0.297 0.070l0.004-0.002c-0.147 0.040-3.507 1.747-3.713 8.573 0 0.227 0 0.453 0 0.667 0 6.627 5.373 12 12 12v0h0.033c6.613-0.019 11.967-5.384 11.967-12 0-0 0-0 0-0v0c0-0.333-0.067-1.267-0.067-1.267zM12 30.667c-2.226-0.077-4.002-1.9-4.002-4.138 0-0.043 0.001-0.086 0.002-0.129l-0 0.006c0-0.080 0-0.16 0-0.26-0-0.011-0-0.024-0-0.037 0-0.762 0.157-1.487 0.44-2.145l-0.014 0.035c0.342 0.913 1.191 1.557 2.196 1.593l0.004 0c0.368 0 0.667-0.298 0.667-0.667v0c-0.004-0.119-0.006-0.26-0.006-0.4 0-0.93 0.097-1.837 0.281-2.712l-0.015 0.085c0.258-0.99 0.72-1.849 1.34-2.568l-0.007 0.008c0.334 0.965 0.8 1.801 1.387 2.537l-0.013-0.017c0.958 1.139 1.59 2.581 1.738 4.163l0.002 0.030c0.003 0.053 0.005 0.114 0.005 0.177s-0.002 0.124-0.006 0.185l0-0.008c0.001 0.036 0.002 0.079 0.002 0.122 0 2.238-1.776 4.061-3.995 4.137l-0.007 0z"/>
  </svg>