<?xml version="1.0" encoding="UTF-8"?>
<svg xmlns="http://www.w3.org/2000/svg" xmlns:xlink="http://www.w3.org/1999/xlink" width="116px" height="100px">
  <defs>
    <linearGradient id="PSgrad_0" x1="0%" x2="0%" y1="0%" y2="100%">
      <stop offset="0%" stop-color="rgb(179,149,88)" stop-opacity="1"></stop>
      <stop offset="50%" stop-color="rgb(251,247,200)" stop-opacity="1"></stop>
      <stop offset="100%" stop-color="rgb(178,148,87)" stop-opacity="1"></stop>
    </linearGradient>
  </defs>
  <path fill-rule="evenodd" fill="rgb(255, 255, 255)" d="M115.264,11.430 L105.190,43.329 C104.978,43.999 104.359,44.427 103.692,44.427 C103.535,44.427 103.376,44.404 103.219,44.354 C102.391,44.092 101.932,43.210 102.193,42.383 L111.623,12.527 L102.012,12.527 C101.144,12.527 100.441,11.824 100.441,10.956 C100.441,10.089 101.144,9.386 102.012,9.386 L113.766,9.386 C114.267,9.386 114.738,9.624 115.033,10.028 C115.329,10.432 115.415,10.952 115.264,11.430 ZM90.653,96.072 C87.992,98.733 84.227,99.997 79.696,99.998 C66.581,100.000 47.025,89.412 29.059,71.447 C4.884,47.275 -5.934,20.223 4.431,9.860 L11.691,2.601 C13.458,0.834 15.892,0.008 18.370,0.336 C20.847,0.664 22.983,2.094 24.229,4.259 L38.314,28.719 C40.108,31.834 39.585,35.785 37.043,38.327 L30.713,44.656 C29.469,45.900 29.368,47.875 30.478,49.250 C33.492,52.983 36.805,56.661 40.326,60.181 C43.845,63.700 47.523,67.012 51.258,70.027 C52.633,71.137 54.608,71.036 55.852,69.792 L62.182,63.463 C64.724,60.921 68.676,60.398 71.792,62.192 L96.255,76.276 C98.421,77.522 99.851,79.658 100.178,82.135 C100.506,84.612 99.680,87.045 97.913,88.812 L90.653,96.072 ZM96.393,82.637 C96.222,81.347 95.478,80.236 94.351,79.587 L69.887,65.503 C68.266,64.570 66.209,64.841 64.885,66.165 L62.235,68.814 L66.044,70.988 C66.960,71.511 67.279,72.677 66.756,73.593 C66.404,74.210 65.758,74.557 65.095,74.557 C64.774,74.557 64.449,74.476 64.150,74.305 L59.435,71.614 L58.555,72.494 C55.926,75.122 51.758,75.340 48.860,73.000 C45.020,69.901 41.241,66.497 37.626,62.883 C34.010,59.267 30.606,55.488 27.507,51.650 C25.167,48.752 25.385,44.584 28.013,41.956 L29.232,40.737 L16.267,18.220 C15.740,17.306 16.054,16.139 16.968,15.613 C17.882,15.086 19.051,15.400 19.577,16.315 L32.029,37.941 L34.343,35.627 C35.666,34.304 35.939,32.247 35.005,30.626 L20.920,6.165 C20.271,5.038 19.159,4.294 17.869,4.123 C17.684,4.099 17.498,4.087 17.315,4.087 C16.222,4.087 15.180,4.514 14.393,5.302 L13.658,6.037 L15.495,9.226 C16.021,10.140 15.707,11.308 14.793,11.834 C14.492,12.007 14.165,12.089 13.841,12.089 C13.180,12.089 12.538,11.745 12.184,11.132 L10.861,8.833 L7.132,12.562 C3.198,16.495 3.390,24.607 7.660,34.817 C12.218,45.715 20.777,57.765 31.760,68.746 C42.743,79.728 54.794,88.286 65.694,92.843 C75.904,97.112 84.018,97.305 87.952,93.371 L91.444,89.880 L71.406,78.445 C70.489,77.923 70.170,76.756 70.693,75.840 C71.217,74.924 72.383,74.606 73.299,75.128 L94.244,87.080 L95.212,86.112 C96.132,85.192 96.562,83.925 96.393,82.637 ZM85.055,48.316 C84.861,49.010 84.230,49.464 83.543,49.464 C83.403,49.464 83.260,49.445 83.118,49.405 C82.283,49.171 81.795,48.305 82.029,47.469 L93.783,5.496 C94.017,4.661 94.883,4.174 95.719,4.407 C96.555,4.641 97.042,5.508 96.809,6.343 L85.055,48.316 ZM78.504,36.032 L76.717,36.032 L76.717,42.856 C76.717,43.723 76.014,44.427 75.146,44.427 C74.278,44.427 73.575,43.724 73.575,42.856 L73.575,36.032 L63.392,36.032 C62.937,36.032 62.504,35.835 62.206,35.491 C61.907,35.147 61.773,34.690 61.837,34.239 L65.196,10.734 C65.319,9.876 66.116,9.281 66.973,9.401 C67.832,9.524 68.429,10.319 68.306,11.178 L65.204,32.890 L73.575,32.890 L73.575,10.956 C73.575,10.089 74.279,9.386 75.146,9.386 C76.014,9.386 76.717,10.089 76.717,10.956 L76.717,32.890 L78.505,32.890 C79.372,32.890 80.075,33.594 80.075,34.461 C80.075,35.329 79.372,36.032 78.504,36.032 ZM46.585,41.285 L58.355,41.285 C59.223,41.285 59.926,41.988 59.925,42.856 C59.925,43.723 59.222,44.427 58.355,44.427 L44.922,44.427 C44.054,44.427 43.351,43.724 43.351,42.856 C43.351,36.129 47.352,31.887 50.883,28.145 C54.049,24.789 56.784,21.891 56.784,17.672 C56.784,14.835 54.475,12.527 51.638,12.527 C48.801,12.527 46.493,14.835 46.493,17.672 C46.493,18.540 45.790,19.243 44.922,19.243 C44.054,19.243 43.351,18.540 43.351,17.672 C43.351,13.103 47.069,9.386 51.638,9.386 C56.208,9.386 59.926,13.103 59.926,17.672 C59.926,23.139 56.491,26.780 53.169,30.301 C50.076,33.579 47.138,36.694 46.585,41.285 Z"></path>
  <path fill="url(#PSgrad_0)" d="M115.264,11.430 L105.190,43.329 C104.978,43.999 104.359,44.427 103.692,44.427 C103.535,44.427 103.376,44.404 103.219,44.354 C102.391,44.092 101.932,43.210 102.193,42.383 L111.623,12.527 L102.012,12.527 C101.144,12.527 100.441,11.824 100.441,10.956 C100.441,10.089 101.144,9.386 102.012,9.386 L113.766,9.386 C114.267,9.386 114.738,9.624 115.033,10.028 C115.329,10.432 115.415,10.952 115.264,11.430 ZM90.653,96.072 C87.992,98.733 84.227,99.997 79.696,99.998 C66.581,100.000 47.025,89.412 29.059,71.447 C4.884,47.275 -5.934,20.223 4.431,9.860 L11.691,2.601 C13.458,0.834 15.892,0.008 18.370,0.336 C20.847,0.664 22.983,2.094 24.229,4.259 L38.314,28.719 C40.108,31.834 39.585,35.785 37.043,38.327 L30.713,44.656 C29.469,45.900 29.368,47.875 30.478,49.250 C33.492,52.983 36.805,56.661 40.326,60.181 C43.845,63.700 47.523,67.012 51.258,70.027 C52.633,71.137 54.608,71.036 55.852,69.792 L62.182,63.463 C64.724,60.921 68.676,60.398 71.792,62.192 L96.255,76.276 C98.421,77.522 99.851,79.658 100.178,82.135 C100.506,84.612 99.680,87.045 97.913,88.812 L90.653,96.072 ZM96.393,82.637 C96.222,81.347 95.478,80.236 94.351,79.587 L69.887,65.503 C68.266,64.570 66.209,64.841 64.885,66.165 L62.235,68.814 L66.044,70.988 C66.960,71.511 67.279,72.677 66.756,73.593 C66.404,74.210 65.758,74.557 65.095,74.557 C64.774,74.557 64.449,74.476 64.150,74.305 L59.435,71.614 L58.555,72.494 C55.926,75.122 51.758,75.340 48.860,73.000 C45.020,69.901 41.241,66.497 37.626,62.883 C34.010,59.267 30.606,55.488 27.507,51.650 C25.167,48.752 25.385,44.584 28.013,41.956 L29.232,40.737 L16.267,18.220 C15.740,17.306 16.054,16.139 16.968,15.613 C17.882,15.086 19.051,15.400 19.577,16.315 L32.029,37.941 L34.343,35.627 C35.666,34.304 35.939,32.247 35.005,30.626 L20.920,6.165 C20.271,5.038 19.159,4.294 17.869,4.123 C17.684,4.099 17.498,4.087 17.315,4.087 C16.222,4.087 15.180,4.514 14.393,5.302 L13.658,6.037 L15.495,9.226 C16.021,10.140 15.707,11.308 14.793,11.834 C14.492,12.007 14.165,12.089 13.841,12.089 C13.180,12.089 12.538,11.745 12.184,11.132 L10.861,8.833 L7.132,12.562 C3.198,16.495 3.390,24.607 7.660,34.817 C12.218,45.715 20.777,57.765 31.760,68.746 C42.743,79.728 54.794,88.286 65.694,92.843 C75.904,97.112 84.018,97.305 87.952,93.371 L91.444,89.880 L71.406,78.445 C70.489,77.923 70.170,76.756 70.693,75.840 C71.217,74.924 72.383,74.606 73.299,75.128 L94.244,87.080 L95.212,86.112 C96.132,85.192 96.562,83.925 96.393,82.637 ZM85.055,48.316 C84.861,49.010 84.230,49.464 83.543,49.464 C83.403,49.464 83.260,49.445 83.118,49.405 C82.283,49.171 81.795,48.305 82.029,47.469 L93.783,5.496 C94.017,4.661 94.883,4.174 95.719,4.407 C96.555,4.641 97.042,5.508 96.809,6.343 L85.055,48.316 ZM78.504,36.032 L76.717,36.032 L76.717,42.856 C76.717,43.723 76.014,44.427 75.146,44.427 C74.278,44.427 73.575,43.724 73.575,42.856 L73.575,36.032 L63.392,36.032 C62.937,36.032 62.504,35.835 62.206,35.491 C61.907,35.147 61.773,34.690 61.837,34.239 L65.196,10.734 C65.319,9.876 66.116,9.281 66.973,9.401 C67.832,9.524 68.429,10.319 68.306,11.178 L65.204,32.890 L73.575,32.890 L73.575,10.956 C73.575,10.089 74.279,9.386 75.146,9.386 C76.014,9.386 76.717,10.089 76.717,10.956 L76.717,32.890 L78.505,32.890 C79.372,32.890 80.075,33.594 80.075,34.461 C80.075,35.329 79.372,36.032 78.504,36.032 ZM46.585,41.285 L58.355,41.285 C59.223,41.285 59.926,41.988 59.925,42.856 C59.925,43.723 59.222,44.427 58.355,44.427 L44.922,44.427 C44.054,44.427 43.351,43.724 43.351,42.856 C43.351,36.129 47.352,31.887 50.883,28.145 C54.049,24.789 56.784,21.891 56.784,17.672 C56.784,14.835 54.475,12.527 51.638,12.527 C48.801,12.527 46.493,14.835 46.493,17.672 C46.493,18.540 45.790,19.243 44.922,19.243 C44.054,19.243 43.351,18.540 43.351,17.672 C43.351,13.103 47.069,9.386 51.638,9.386 C56.208,9.386 59.926,13.103 59.926,17.672 C59.926,23.139 56.491,26.780 53.169,30.301 C50.076,33.579 47.138,36.694 46.585,41.285 Z"></path>
</svg>
